<svg xmlns="http://www.w3.org/2000/svg" width="425.792" height="1060.309" viewBox="0 0 425.792 1060.309">
  <g id="BG_Waves" data-name="BG / Waves" transform="translate(1 1)">
    <path id="Path" d="M0,0S338.6,196.208,261.026,508.468s16.767,549.841,16.767,549.841" fill="none" stroke="#707070" stroke-linecap="round" stroke-linejoin="round" stroke-miterlimit="10" stroke-width="2" stroke-dasharray="1 24" opacity="0.433"/>
    <path id="Path-2" data-name="Path" stroke-linecap="round" d="M0,0S338.6,196.208,261.026,508.468s16.767,549.841,16.767,549.841" fill="none" stroke="#707070" transform="translate(21)" stroke-linejoin="round" stroke-miterlimit="10" stroke-width="2" stroke-dasharray="1 24" opacity="0.433"/>
    <path id="Path_Copy" data-name="Path Copy" stroke-linecap="round" d="M0,0S338.6,196.208,261.026,508.468s16.767,549.841,16.767,549.841" fill="none" stroke="#707070" transform="translate(45)" stroke-linejoin="round" stroke-miterlimit="10" stroke-width="2" stroke-dasharray="1 24" opacity="0.433"/>
    <path id="Path_Copy_2" data-name="Path Copy 2" stroke-linecap="round" d="M0,0S338.6,196.208,261.026,508.468s16.767,549.841,16.767,549.841" fill="none" stroke="#707070" transform="translate(68)" stroke-linejoin="round" stroke-miterlimit="10" stroke-width="2" stroke-dasharray="1 24" opacity="0.433"/>
    <path id="Path_Copy_3" data-name="Path Copy 3" stroke-linecap="round" d="M0,0S338.6,196.208,261.026,508.468s16.767,549.841,16.767,549.841" fill="none" stroke="#707070" transform="translate(94)" stroke-linejoin="round" stroke-miterlimit="10" stroke-width="2" stroke-dasharray="1 24" opacity="0.433"/>
    <path id="Path_Copy_4" data-name="Path Copy 4" stroke-linecap="round" d="M0,0S338.6,196.208,261.026,508.468s16.767,549.841,16.767,549.841" fill="none" stroke="#707070" transform="translate(120)" stroke-linejoin="round" stroke-miterlimit="10" stroke-width="2" stroke-dasharray="1 24" opacity="0.433"/>
    <path id="Path_Copy_5" data-name="Path Copy 5" stroke-linecap="round" d="M0,0S338.6,196.208,261.026,508.468s16.767,549.841,16.767,549.841" fill="none" stroke="#707070" transform="translate(146)" stroke-linejoin="round" stroke-miterlimit="10" stroke-width="2" stroke-dasharray="1 24" opacity="0.433"/>
  </g>
</svg>
